<svg width="146" height="176" viewBox="0 0 146 176" fill="none" xmlns="http://www.w3.org/2000/svg">
<g clip-path="url(#clip0_13_123)">
<mask id="mask0_13_123" style="mask-type:luminance" maskUnits="userSpaceOnUse" x="0" y="-2" width="146" height="183">
<path d="M146 -1.22803H0V180.447H146V-1.22803Z" fill="white"/>
</mask>
<g mask="url(#mask0_13_123)">
<path d="M145.878 0H0V144.261H145.878V0Z" fill="#F5A200"/>
</g>
<mask id="mask1_13_123" style="mask-type:luminance" maskUnits="userSpaceOnUse" x="0" y="-2" width="146" height="183">
<path d="M146 -1.22803H0V180.447H146V-1.22803Z" fill="white"/>
</mask>
<g mask="url(#mask1_13_123)">
<path d="M51.3534 123.772H28.5937V45.5792H13.7162V32.3072C23.9274 32.4502 30.6387 28.2642 34.2849 18.4553H51.3534V123.772Z" fill="white"/>
</g>
<mask id="mask2_13_123" style="mask-type:luminance" maskUnits="userSpaceOnUse" x="0" y="-2" width="146" height="183">
<path d="M146 -1.22803H0V180.447H146V-1.22803Z" fill="white"/>
</mask>
<g mask="url(#mask2_13_123)">
<path d="M95.9868 64.0459C100.363 60.0046 103.575 57.1198 110.867 57.1198C124.434 57.1198 131.582 68.5176 131.582 89.7276C131.582 109.638 126.33 125.507 102.261 125.507C85.3371 125.507 76.7309 116.993 73.6679 100.834C72.3555 93.7655 72.2075 85.1061 72.2075 73.2797C72.3555 58.8497 72.4997 50.1937 73.8152 43.1249C76.8782 26.9681 85.4817 18.4551 102.406 18.4551C117.72 18.4551 130.124 27.8339 130.124 43.7047V49.0439H108.824V46.5878C108.824 39.376 106.052 37.5001 102.406 37.5001C98.0304 38.0782 96.1318 42.1178 95.9875 47.8857V64.0459H95.9868ZM102.55 77.8947C98.0304 77.8947 95.9872 82.3698 95.9872 91.8896C95.9872 101.555 98.0304 105.883 102.55 105.883C107.366 105.883 109.409 101.555 109.409 91.8896C109.409 82.3694 107.366 77.8947 102.55 77.8947Z" fill="white"/>
</g>
<mask id="mask3_13_123" style="mask-type:luminance" maskUnits="userSpaceOnUse" x="0" y="-2" width="146" height="183">
<path d="M146 -1.22803H0V180.447H146V-1.22803Z" fill="white"/>
</mask>
<g mask="url(#mask3_13_123)">
<path d="M0 176H145.878V0H0M142.955 141.373H2.91704V2.88308H142.955V141.373Z" fill="black"/>
</g>
<mask id="mask4_13_123" style="mask-type:luminance" maskUnits="userSpaceOnUse" x="0" y="-2" width="146" height="183">
<path d="M146 -1.22803H0V180.447H146V-1.22803Z" fill="white"/>
</mask>
<g mask="url(#mask4_13_123)">
<path d="M130.636 5.77124V6.84172H128.331V14.0698H126.977V6.84172H124.668V5.77124H130.636ZM140.041 14.0698H138.684V7.53335H138.645L136.319 14.0698H135.216L133.001 7.53369H132.962V14.0698H131.609V5.77124H133.76L135.853 11.9451H135.892L137.928 5.77124H140.041V14.0698H140.041Z" fill="black"/>
</g>
<mask id="mask5_13_123" style="mask-type:luminance" maskUnits="userSpaceOnUse" x="0" y="-2" width="146" height="183">
<path d="M146 -1.22803H0V180.447H146V-1.22803Z" fill="white"/>
</mask>
<g mask="url(#mask5_13_123)">
<path d="M9.26337 165.182H11.7387L14.0133 154.241H14.0643L16.4393 165.182H18.7635L21.9677 151.788H19.749L17.6533 162.739H17.5988L15.352 151.788H12.8524L10.5528 162.739H10.5017L8.32895 151.788H6.1051L9.26337 165.182Z" fill="white"/>
</g>
<mask id="mask6_13_123" style="mask-type:luminance" maskUnits="userSpaceOnUse" x="0" y="-2" width="146" height="183">
<path d="M146 -1.22803H0V180.447H146V-1.22803Z" fill="white"/>
</mask>
<g mask="url(#mask6_13_123)">
<path d="M25.642 165.182H28.1174L30.3919 154.241H30.4464L32.8214 165.182H35.1388L38.3498 151.788H36.1277L34.0317 162.739H33.9775L31.7273 151.788H29.2276L26.9297 162.739H26.8804L24.7076 151.788H22.4838L25.642 165.182Z" fill="white"/>
</g>
<mask id="mask7_13_123" style="mask-type:luminance" maskUnits="userSpaceOnUse" x="0" y="-2" width="146" height="183">
<path d="M146 -1.22803H0V180.447H146V-1.22803Z" fill="white"/>
</mask>
<g mask="url(#mask7_13_123)">
<path d="M42.019 165.182H44.4943L46.7689 154.241H46.8182L49.1966 165.182H51.5174L54.7268 151.788H52.506L50.4069 162.739H50.3579L48.1077 151.788H45.608L43.3067 162.739H43.2556L41.0829 151.788H38.8573L42.019 165.182Z" fill="white"/>
</g>
<mask id="mask8_13_123" style="mask-type:luminance" maskUnits="userSpaceOnUse" x="0" y="-2" width="146" height="183">
<path d="M146 -1.22803H0V180.447H146V-1.22803Z" fill="white"/>
</mask>
<g mask="url(#mask8_13_123)">
<path d="M58.2465 162.538H55.9257V165.182H58.2465V162.538Z" fill="white"/>
</g>
<mask id="mask9_13_123" style="mask-type:luminance" maskUnits="userSpaceOnUse" x="0" y="-2" width="146" height="183">
<path d="M146 -1.22803H0V180.447H146V-1.22803Z" fill="white"/>
</mask>
<g mask="url(#mask9_13_123)">
<path fill-rule="evenodd" clip-rule="evenodd" d="M63.5026 158.49C63.5026 155.436 63.8819 153.24 66.2322 153.24C68.2049 153.24 68.7089 155.294 68.7089 158.237C68.7089 161.687 68.2049 163.733 66.2322 163.733C63.959 163.733 63.5026 161.086 63.5026 158.49ZM61.507 169.581H63.626V163.662H63.6801C64.1612 164.809 65.2978 165.533 66.5084 165.533C70.0199 165.533 70.9331 161.284 70.9331 158.237C70.9331 154.267 69.7177 151.441 66.5084 151.441C65.0435 151.441 63.8593 152.444 63.58 153.442H63.5286V151.788H61.507V169.581Z" fill="white"/>
</g>
<mask id="mask10_13_123" style="mask-type:luminance" maskUnits="userSpaceOnUse" x="0" y="-2" width="146" height="183">
<path d="M146 -1.22803H0V180.447H146V-1.22803Z" fill="white"/>
</mask>
<g mask="url(#mask10_13_123)">
<path fill-rule="evenodd" clip-rule="evenodd" d="M75.0539 157.086V156.586C75.0539 155.793 75.3051 153.091 77.5293 153.091C79.3985 153.091 79.8778 154.861 79.8778 156.362V157.086H75.0539ZM82.0983 158.737V157.889C82.0983 155.014 81.7203 151.441 77.5783 151.441C73.4116 151.441 72.7526 155.313 72.7526 158.666C72.7526 163.262 74.1421 165.533 77.4549 165.533C81.1392 165.533 81.9999 162.21 81.9999 160.787H79.8778C79.8778 161.784 79.5955 163.886 77.5783 163.886C74.9799 163.886 74.9799 160.787 74.9799 158.737H82.0983V158.737Z" fill="white"/>
</g>
<mask id="mask11_13_123" style="mask-type:luminance" maskUnits="userSpaceOnUse" x="0" y="-2" width="146" height="183">
<path d="M146 -1.22803H0V180.447H146V-1.22803Z" fill="white"/>
</mask>
<g mask="url(#mask11_13_123)">
<path fill-rule="evenodd" clip-rule="evenodd" d="M88.622 153.24C90.8952 153.24 91.3486 155.888 91.3486 158.49C91.3486 161.232 90.8952 163.386 88.5926 163.386C86.477 163.386 86.145 160.66 86.145 158.49C86.1453 155.294 86.6511 153.24 88.622 153.24ZM93.3425 151.788H91.3222V153.494H91.2698C90.9939 152.442 89.808 151.441 88.3397 151.441C84.9066 151.441 83.9246 154.865 83.9246 158.49C83.9246 160.264 84.1744 165.182 88.1159 165.182C89.4561 165.182 90.7177 164.507 91.1711 163.386H91.2269V165.137C91.2269 166.059 91.3218 168.132 88.5926 168.132C87.4854 168.132 86.5195 167.658 86.4212 166.436H84.2991C84.6507 169.782 87.9127 169.782 88.7403 169.782C91.4736 169.782 93.3425 168.334 93.3425 164.334V151.788Z" fill="white"/>
</g>
<mask id="mask12_13_123" style="mask-type:luminance" maskUnits="userSpaceOnUse" x="0" y="-2" width="146" height="183">
<path d="M146 -1.22803H0V180.447H146V-1.22803Z" fill="white"/>
</mask>
<g mask="url(#mask12_13_123)">
<path fill-rule="evenodd" clip-rule="evenodd" d="M96.2565 165.182H98.3782V151.791H96.2565V165.182ZM96.2565 149.745H98.3782V147.341H96.2565V149.745Z" fill="white"/>
</g>
<mask id="mask13_13_123" style="mask-type:luminance" maskUnits="userSpaceOnUse" x="0" y="-2" width="146" height="183">
<path d="M146 -1.22803H0V180.447H146V-1.22803Z" fill="white"/>
</mask>
<g mask="url(#mask13_13_123)">
<path d="M104.084 162.538H101.762V165.182H104.084V162.538Z" fill="white"/>
</g>
<mask id="mask14_13_123" style="mask-type:luminance" maskUnits="userSpaceOnUse" x="0" y="-2" width="146" height="183">
<path d="M146 -1.22803H0V180.447H146V-1.22803Z" fill="white"/>
</mask>
<g mask="url(#mask14_13_123)">
<path fill-rule="evenodd" clip-rule="evenodd" d="M107.471 165.182H109.6V151.791H107.471V165.182ZM107.471 149.745H109.6V147.341H107.471V149.745Z" fill="white"/>
</g>
<mask id="mask15_13_123" style="mask-type:luminance" maskUnits="userSpaceOnUse" x="0" y="-2" width="146" height="183">
<path d="M146 -1.22803H0V180.447H146V-1.22803Z" fill="white"/>
</mask>
<g mask="url(#mask15_13_123)">
<path d="M112.5 165.182H114.616V155.94C114.616 153.991 116.163 153.24 117.3 153.24C119.218 153.24 119.297 154.917 119.297 155.94V165.182H121.419V155.687C121.419 154.118 121.419 151.441 117.851 151.441C116.544 151.441 115.125 152.142 114.573 153.37H114.521V151.788H112.5V165.182H112.5Z" fill="white"/>
</g>
<mask id="mask16_13_123" style="mask-type:luminance" maskUnits="userSpaceOnUse" x="0" y="-2" width="146" height="183">
<path d="M146 -1.22803H0V180.447H146V-1.22803Z" fill="white"/>
</mask>
<g mask="url(#mask16_13_123)">
<path d="M124.832 165.182H126.96V153.442H129.276V151.788H126.96V150.219C126.96 149.293 127.41 148.946 128.324 148.946H129.306V147.146H127.765C125.716 147.146 124.832 148.195 124.832 150.219V151.788H122.864V153.442H124.832V165.182Z" fill="white"/>
</g>
<mask id="mask17_13_123" style="mask-type:luminance" maskUnits="userSpaceOnUse" x="0" y="-2" width="146" height="183">
<path d="M146 -1.22803H0V180.447H146V-1.22803Z" fill="white"/>
</mask>
<g mask="url(#mask17_13_123)">
<path fill-rule="evenodd" clip-rule="evenodd" d="M130.084 158.49C130.084 162.259 131.05 165.533 134.962 165.533C138.855 165.533 139.834 162.259 139.834 158.49C139.834 154.712 138.878 151.441 134.962 151.441C131.077 151.441 130.084 154.712 130.084 158.49ZM134.913 163.89C132.738 163.89 132.315 161.382 132.315 158.49C132.315 155.586 132.768 153.091 134.913 153.091C137.186 153.091 137.62 155.586 137.62 158.49C137.62 161.381 137.16 163.89 134.913 163.89Z" fill="white"/>
</g>
</g>
<defs>
<clipPath id="clip0_13_123">
<rect width="146" height="176" fill="white"/>
</clipPath>
</defs>
</svg>
