<svg width="133" height="155" fill="none" xmlns="http://www.w3.org/2000/svg"><g clip-path="url(#a)"><mask id="b" style="mask-type:luminance" maskUnits="userSpaceOnUse" x="-58" y="-32" width="248" height="219"><path d="M-57.143-31.36h246.614v217.651H-57.143v-217.65Z" fill="#fff"/></mask><g mask="url(#b)"><path fill-rule="evenodd" clip-rule="evenodd" d="M120.922 0H12.078C3.256 0 0 3.27 0 12.134v106.963c0 1.003.04 1.935.129 2.798.2 1.935.238 3.81 2.03 5.944.175.21 2.004 1.577 2.004 1.577.984.484 1.656.841 2.766 1.29l53.596 22.552c2.782 1.281 3.946 1.78 5.967 1.74h.016c2.02.04 3.184-.459 5.967-1.74l53.596-22.552c1.11-.449 1.781-.806 2.766-1.29 0 0 1.829-1.367 2.004-1.577 1.791-2.134 1.829-4.009 2.03-5.944.088-.863.129-1.795.129-2.798V12.134C133 3.27 129.744 0 120.922 0Z" fill="#fff"/><path d="m113.632 107.537-.025.247-.025.271-.049.246-.073.247-.048.222-.074.247-.098.222-.098.198-.097.221-.123.198-.123.197-.146.198-.123.197-.146.173-.172.172-.146.148-.196.173-.171.148-.196.148-.195.122-.195.148-.221.123-.22.099-.22.123-.245.099-.245.099-.244.074-.244.074-.221.074-.244.049-.22.05-.219.049-.246.049-.245.025-.219.025-.246.024-.268.025-.245.025H106.074l-.244-.025h-.269l-.244-.025-.246-.024-.269-.025-.244-.049-.244-.025-.246-.049-.244-.05-.244-.049-.245-.049-.245-.074-.22-.05-.244-.074-.244-.074-.221-.099-.244-.074-.22-.073-.245-.099-.22-.099-.22-.099-.22-.121-.221-.099-.22-.124-.195-.123-.22-.123-.196-.124-.196-.123-.195-.148-.196-.148-.196-.148-.195-.148-.172-.148-.195-.173.147-.197.17-.173.148-.197.17-.198.148-.172.146-.198.172-.197.146-.173.172-.197.146-.173.172-.197.146-.198.147-.172.171-.198.147-.197.17-.173.148-.197.195.148.22.148.196.148.22.148.196.123.22.148.195.124.221.098.195.124.22.099.221.098.22.099.22.074.22.098.245.074.244.074.22.075.245.049.244.049.245.05.268.024.246.05h.244l.269.024H107.027l.269-.024.246-.05.22-.049.219-.049.197-.074.171-.099.196-.148.146-.173.098-.197.074-.222.024-.247v-.049l-.024-.297-.098-.246-.123-.173-.171-.148-.196-.148-.196-.099-.219-.098-.246-.099-.293-.123-.171-.05-.195-.049-.221-.074-.219-.05-.245-.074-.245-.049-.269-.074-.244-.049-.269-.074-.244-.049-.246-.074-.244-.05-.244-.074-.222-.074-.243-.049-.22-.074-.22-.074-.221-.074-.269-.099-.244-.099-.244-.098-.246-.099-.219-.124-.245-.123-.196-.123-.22-.123-.195-.148-.197-.124-.17-.148-.172-.173-.171-.172-.147-.173-.146-.173-.123-.172-.121-.198-.123-.222-.098-.171-.074-.198-.072-.222-.074-.197-.05-.247-.048-.222-.025-.246-.024-.247-.025-.271V99.643l.025-.247.024-.222.025-.247.049-.221.05-.222.073-.223.049-.222.097-.222.098-.222.098-.222.122-.222.122-.222.146-.197.148-.198.17-.197.172-.173.171-.197.196-.173.171-.123.196-.148.196-.148.195-.124.221-.123.219-.099.22-.123.221-.099.244-.074.244-.098.221-.074.196-.05.22-.05.22-.049.245-.049.219-.05.245-.024.245-.025.244-.024.245-.025h1.052l.268.025.269.025h.244l.27.024.245.05.268.024.245.05.221.049.244.049.244.05.22.049.246.074.219.074.22.05.246.098.219.074.22.099.22.098.245.1.22.122.195.1.221.123.22.123.195.123.221.148.195.123.197.149.195.148.195.147-.146.198-.123.197-.146.198-.147.197-.146.222-.123.198-.148.197-.146.197-.122.198-.147.197-.147.198-.123.197-.145.222-.148.197-.146.198-.123.197-.146.197-.196-.147-.22-.124-.195-.123-.197-.148-.219-.099-.197-.123-.219-.1-.195-.098-.221-.099-.196-.098-.219-.074-.197-.099-.269-.074-.244-.074-.244-.074-.246-.05-.244-.049-.244-.05-.244-.024-.246-.024-.219-.025h-.538l-.269.05-.246.049-.219.049-.195.099-.172.098-.22.198-.147.222-.097.222-.025.247v.05l.025.32.121.271.099.148.17.173.221.123.195.124.244.098.271.099.293.099.195.049.195.074.221.049.22.074.244.05.27.074.269.074.269.074.269.049.244.074.269.074.245.049.245.074.244.074.219.075.246.074.22.074.219.074.271.097.244.123.244.099.244.123.221.124.22.123.195.123.196.148.196.124.195.172.196.173.171.198.172.172.146.198.147.221.122.198.123.222.098.197.073.222.073.222.049.222.049.247.049.247.025.247.024.271V107.265l-.024.272ZM96.48 112.47H82.466V94.511H96.602v4.071H87.136V101.518H95.648V105.341H87.136V108.4H96.724V112.47h-.244Zm-17.87 0h-4.475V101.85l-.123.198-.146.223-.123.198-.146.197-.122.222-.148.198-.121.197-.123.223-.146.198-.123.197-.147.198-.121.223-.148.197-.121.198-.123.222-.148.198-.121.198-.148.222-.12.197-.148.198-.121.223-.123.198-.148.197-.121.222-.148.199-.12.197-.148.198-.123.222-.122.198-.147.198-.121.222-.148.197-.122.198-.147.223-.122.198h-.097l-.147-.222-.123-.199-.146-.222-.123-.198-.146-.222-.123-.199-.146-.222-.123-.197-.147-.222-.122-.197-.147-.224-.121-.197-.148-.222-.123-.198-.145-.223-.124-.198-.145-.222-.148-.197-.122-.223-.147-.198-.122-.222-.146-.197-.123-.224-.146-.197-.123-.222-.147-.198-.122-.222-.147-.199-.121-.221-.148-.198-.123-.222-.145-.197-.124-.224-.145-.197v10.57h-4.648V94.511H65.16l.121.198.123.221.146.196.123.222.122.198.122.222.123.196.146.222.122.197.123.198.122.22.123.198.146.222.122.197.123.22.122.198.147.197.123.221.121.197.123.222.121.198.148.22.123.198.12.222.124.196.121.197.148.222.122.198.122.222.123.196.12.222.149.197.122.221.122.197.123-.197.122-.221.146-.197.123-.222.122-.196.122-.222.146-.198.123-.222.123-.197.121-.196.148-.222.121-.198.123-.22.123-.198.146-.222.122-.197.123-.22.121-.198.124-.197.145-.22.123-.198.123-.222.122-.198.147-.22.122-.198.122-.197.123-.222.146-.196.123-.222.121-.198.123-.222.147-.196.122-.221.123-.198h5.012V112.47h-.244Zm-28.376-7.4-.074-.224-.097-.247-.098-.222-.074-.223-.097-.222-.098-.247-.074-.224-.098-.222-.097-.222-.074-.223-.098-.247-.072-.222-.098-.223-.099-.223-.073-.222-.097-.248-.098-.222-.074-.222-.098-.223-.097-.247-.074-.224-.098-.222-.097.222-.073.224-.099.247-.098.223-.072.222-.099.222-.098.248-.097.222-.074.223-.098.223-.098.222-.072.247-.099.223-.098.222-.073.222-.097.224-.099.247-.098.222-.072.223-.098.222-.099.247-.073.224-.097.222h4.133l-.098-.222Zm7.68 7.4H53.12l-.097-.223-.074-.222-.098-.222-.099-.246-.072-.221-.098-.222-.099-.222-.072-.222-.098-.222-.098-.222-.074-.222-.097-.247-.098-.222-.074-.222-.098-.222h-7.019l-.097.222-.073.222-.099.222-.098.247-.072.222-.098.222-.099.222-.073.222-.097.222-.098.222-.074.221-.097.246-.098.222-.074.222-.098.223H38.47l.096-.223.099-.222.098-.222.097-.246.074-.221.098-.222.098-.222.097-.222.098-.222.099-.247.096-.222.099-.222.073-.222.098-.222.097-.222.099-.247.098-.222.097-.222.098-.222.098-.222.074-.222.096-.247.099-.222.098-.222.097-.222.098-.222.099-.222.096-.247.074-.222.098-.222.099-.222.097-.222.098-.222.098-.247.097-.222.098-.222.074-.222.098-.222.097-.222.098-.247.098-.222.097-.222.098-.222.099-.222.073-.222.097-.22.099-.247.098-.222.097-.222.098-.223.098-.221.097-.222.074-.247.098-.222.098-.222.097-.222.098-.222.098-.222.097-.247.099-.222.073-.222.098-.222.097-.222.098-.222.099-.247.096-.222.099-.222.098-.222.072-.222.099-.222.098-.247.098-.222.097-.222.099-.222.098-.222.096-.222.074-.247.098-.222.099-.222.096-.222H50.576l.098.222.099.222.096.222.099.247.073.222.097.222.098.222.099.222.098.222.097.247.098.222.098.222.072.222.099.222.098.222.099.247.096.222.098.222.099.222.096.222.074.222.098.247.097.222.099.222.098.222.098.222.097.222.098.247.074.222.097.221.098.223.098.222.099.222.096.247.099.22.098.222.072.222.098.222.099.222.096.222.099.247.098.222.098.222.097.222.074.222.098.222.097.247.098.222.098.222.099.222.096.222.099.222.073.247.097.222.098.222.099.222.096.222.099.222.098.247.099.222.072.222.098.222.098.222.097.222.098.247.099.222.098.222.096.222.074.222.099.222.096.247.099.222.098.222.097.222.098.222.098.221.074.246.097.222.098.222.098.223h-.244Zm-21.426-2.294-.196.148-.171.124-.197.148-.195.123-.195.148-.196.124-.195.123-.221.123-.22.124-.22.123-.22.097-.22.124-.245.098-.22.099-.245.099-.22.098-.22.074-.22.074-.22.075-.244.074-.22.074-.245.049-.22.049-.244.05-.246.049-.244.025-.27.024-.243.025-.27.025-.245.024-.268.025H28.44l-.244-.025-.269-.024-.244-.025-.244-.025-.246-.024-.244-.05-.244-.049-.22-.049-.245-.05-.22-.074-.244-.049-.221-.074-.22-.099-.22-.074-.244-.099-.22-.098-.22-.099-.22-.098-.221-.124-.195-.122-.22-.123-.197-.124-.195-.123-.196-.148-.195-.148-.196-.148-.171-.148-.17-.148-.173-.173-.17-.148-.172-.172-.17-.173-.148-.173-.146-.197-.148-.173-.122-.197-.147-.198-.122-.197-.122-.198-.122-.222-.123-.197-.097-.222-.098-.222-.098-.222-.097-.222-.074-.197-.098-.223-.05-.222-.072-.222-.049-.246-.074-.223-.049-.246-.024-.222-.05-.247-.024-.222-.025-.247-.023-.247-.024-.246V103.244l.024-.272v-.246l.023-.247.025-.272.05-.245.024-.247.049-.222.073-.246.05-.247.072-.222.073-.247.074-.222.099-.247.097-.221.098-.223.098-.222.097-.222.122-.222.123-.197.122-.198.122-.197.123-.197.146-.198.148-.197.146-.197.147-.173.17-.173.148-.173.17-.172.173-.173.17-.148.196-.173.171-.148.195-.148.197-.123.195-.148.197-.124.194-.123.22-.123.221-.124.22-.123.22-.099.22-.098.245-.124.195-.074.244-.074.221-.098.22-.05.22-.074.245-.05.22-.073.244-.05.244-.024.246-.05.244-.024.244-.025.244-.025.246-.024H29.42l.27.024.269.025h.244l.244.025.269.05.221.024.244.05.245.048.22.05.22.049.22.05.221.074.22.049.195.074.22.074.22.098.22.1.221.098.22.123.22.1.196.122.22.124.195.123.22.124.196.147.195.124.197.148.195.148.196.172.195.149-.147.197-.17.173-.148.197-.17.197-.148.198-.146.172-.172.198-.146.197-.147.173-.17.198-.148.197-.17.197-.148.173-.146.197-.172.198-.146.197-.172.173-.146.197-.196-.148-.196-.172-.196-.124-.195-.148-.195-.123-.197-.124-.195-.123-.22-.123-.196-.1-.195-.098-.197-.074-.22-.074-.219-.074-.22-.05-.245-.049-.244-.049-.245-.024-.268-.025-.27-.025h-.514l-.244.025-.22.025-.245.049-.22.05-.22.073-.22.074-.22.099-.22.098-.196.124-.195.123-.197.124-.17.148-.173.148-.17.148-.147.172-.17.173-.148.197-.122.173-.123.198-.12.222-.124.197-.098.222-.073.222-.098.222-.073.247-.05.245-.048.222-.05.272-.024.246-.023.247V103.787l.023.246.024.222.025.247.049.222.05.222.048.222.074.222.072.197.099.247.098.222.121.222.123.198.123.197.146.198.147.172.17.173.148.173.17.148.197.148.195.148.195.123.197.123.22.099.22.099.22.098.245.074.244.075.245.049.245.049.244.025.269.025h.562l.27-.025.269-.025.244-.024.244-.05.246-.049.244-.074.22-.05.22-.098.196-.099.22-.099.171-.098.196-.124V105.612h-3.571V102.012H36.659V110.029l-.17.147ZM28.622 53.878h10.6v-8.235h-10.6v-16.81h11.022v-8.235H19.621v59.43h20.19v-8.236H28.623V53.878ZM104.545 55.661v13.415c0 2.377-1.094 3.48-3.364 3.48h-1.684c-2.355 0-3.45-1.103-3.45-3.48V31.549c0-2.377 1.095-3.48 3.45-3.48h1.515c2.271 0 3.365 1.103 3.365 3.48v11.632h8.833V31.04c0-7.386-3.534-10.952-10.851-10.952h-4.376c-7.318 0-10.937 3.65-10.937 11.037V69.5c0 7.387 3.62 11.037 10.937 11.037h4.459c7.32 0 10.937-3.65 10.937-11.037V55.661h-8.834ZM73.287 80.027h9.002v-59.43h-9.002v59.43ZM60.225 47.001c0 2.378-1.093 3.482-3.364 3.482h-3.702V28.579h3.702c2.271 0 3.364 1.103 3.364 3.48V47ZM58.29 20.598H44.157v59.43h9.002V58.461h5.131c7.32 0 10.936-3.65 10.936-11.035V31.635c0-7.387-3.617-11.037-10.936-11.037Z" fill="#000"/><path fill-rule="evenodd" clip-rule="evenodd" d="M40.857 133.763h51.53l-26.302 8.711-25.228-8.711Z" fill="#000"/></g></g><defs><clipPath id="a"><path fill="#fff" d="M0 0h133v155H0z"/></clipPath></defs></svg>