<svg width="166" height="166" viewBox="0 0 166 166" fill="none" xmlns="http://www.w3.org/2000/svg">
<g clip-path="url(#clip0_14_197)">
<path d="M166 166H0.00195312V0H166V166Z" fill="black"/>
<path d="M0 33.9695L2.69376 31.9443L0 28.3721V33.9695Z" fill="#515054"/>
<mask id="mask0_14_197" style="mask-type:luminance" maskUnits="userSpaceOnUse" x="0" y="0" width="167" height="166">
<path d="M0.0020752 166H166V0.0244446H0.0020752V166Z" fill="white"/>
</mask>
<g mask="url(#mask0_14_197)">
<path d="M7.05691 15.7079C8.27203 14.7904 8.64779 14.1658 7.44731 12.57C6.42251 11.2133 5.86131 11.1694 4.44123 12.2333L7.05691 15.7079ZM9.63843 26.7124L-1.15613 12.3894L3.09435 9.18324C6.15411 6.87986 8.53067 6.71393 11.0439 10.0421C13.5375 13.3557 13.1862 15.2784 9.72627 17.8844L9.07235 18.3773L13.2789 23.9601L9.63843 26.7124Z" fill="#515054"/>
<path d="M19.6654 19.1514L8.87085 4.83328L17.0595 -1.33998L19.2848 1.61245L14.8781 4.93577L16.7081 7.37091L20.3535 4.62344L22.6715 7.693L19.0261 10.4453L21.1294 13.2367L25.7654 9.74262L28.0785 12.8122L19.6654 19.1514Z" fill="#515054"/>
<path d="M30.1505 5.18409C30.7947 6.04298 31.4584 6.07714 32.044 5.63794C32.6296 5.19873 32.776 4.54969 32.1318 3.6908L31.0631 2.27558L30.1164 2.98807L28.1058 0.313797L32.8297 -3.24376L38.8272 4.71561L36.8898 6.16986L35.7772 5.82338C35.5039 7.09219 34.889 8.05844 33.7666 8.90757C30.009 11.7331 27.9643 10.5229 23.7138 4.87665C19.639 -0.530453 19.4438 -3.50729 23.0843 -6.25476C25.1095 -7.77733 27.5007 -8.39222 29.5064 -7.08925C30.131 -6.6842 30.741 -6.01563 31.6145 -4.85906L27.8325 -2.01399L27.1981 -2.84848C26.554 -3.70737 25.8952 -3.73665 25.3096 -3.29744C24.724 -2.85824 24.5727 -2.21407 25.2217 -1.36006L30.1505 5.18409Z" fill="#515054"/>
<path d="M41.0242 3.05737L30.2296 -11.2656L34.0116 -14.1107L44.8013 0.212301L41.0242 3.05737Z" fill="#515054"/>
<path d="M0.585658 50.9308C1.80078 50.0133 2.17654 49.3887 0.976058 47.7929C-0.0487418 46.4362 -0.609942 46.3923 -2.03002 47.4562L0.585658 50.9308ZM3.16718 61.9353L-7.62738 47.6123L-3.3769 44.4061C-0.317142 42.0979 2.05942 41.9368 4.57262 45.265C7.0663 48.5786 6.71494 50.5013 3.25014 53.1073L2.6011 53.6002L6.80766 59.1878L3.16718 61.9353Z" fill="#515054"/>
</g>
<path d="M13.1941 54.3735L2.39954 40.0555L10.5882 33.8822L12.8135 36.8346L8.40681 40.1579L10.2417 42.5931L13.8871 39.8456L16.2002 42.9152L12.5548 45.6675L14.6581 48.4589L19.2892 44.9648L21.6023 48.0343L13.1941 54.3735Z" fill="#515054"/>
<mask id="mask1_14_197" style="mask-type:luminance" maskUnits="userSpaceOnUse" x="-1" y="0" width="167" height="166">
<path d="M-0.0174561 166H166V0.0244446H-0.0174561V166Z" fill="white"/>
</mask>
<g mask="url(#mask1_14_197)">
<path d="M23.6786 40.407C24.3276 41.261 24.9864 41.3 25.572 40.8608C26.1576 40.4216 26.304 39.7726 25.6599 38.9137L24.5912 37.4985L23.6444 38.211L21.6339 35.5367L26.3577 31.9791L32.3552 39.9385L30.4179 41.3928L29.3052 41.0463C29.032 42.3151 28.4171 43.2813 27.2947 44.1305C23.5371 46.956 21.4924 45.7458 17.2419 40.0995C13.1671 34.6924 12.9719 31.7156 16.6124 28.9681C18.6376 27.4456 21.0288 26.8307 23.0344 28.1337C23.6591 28.5387 24.2691 29.2073 25.1426 30.3638L21.3606 33.2089L20.7262 32.3744C20.082 31.5155 19.4232 31.4814 18.8376 31.9206C18.2569 32.3647 18.1008 33.0088 18.7498 33.8628L23.6786 40.407Z" fill="#515054"/>
<path d="M34.5532 38.2803L23.7587 23.9573L27.5407 21.1074L38.3303 35.4352L34.5532 38.2803Z" fill="#515054"/>
<path d="M42.6973 19.1969C43.9124 18.2843 44.2882 17.6548 43.0828 16.059C42.0629 14.7024 41.5017 14.6584 40.0816 15.7223L42.6973 19.1969ZM45.2739 30.2014L34.4843 15.8785L38.7347 12.6723C41.7945 10.3689 44.1711 10.203 46.6843 13.536C49.1779 16.8447 48.8266 18.7674 45.3618 21.3783L44.7127 21.8663L48.9193 27.4491L45.2739 30.2014Z" fill="#515054"/>
</g>
<path d="M55.3031 22.6431L44.5134 8.3201L52.6972 2.15171L54.9225 5.10415L50.5158 8.42746L52.3507 10.8577L55.9961 8.11514L58.3092 11.1847L54.6638 13.9322L56.7671 16.7236L61.4031 13.2294L63.7162 16.3039L55.3031 22.6431Z" fill="#515054"/>
<mask id="mask2_14_197" style="mask-type:luminance" maskUnits="userSpaceOnUse" x="0" y="0" width="167" height="166">
<path d="M0.0020752 166H166V0.0244446H0.0020752V166Z" fill="white"/>
</mask>
<g mask="url(#mask2_14_197)">
<path d="M65.7911 8.67172C66.4402 9.53061 67.099 9.56477 67.6797 9.12556C68.2702 8.68636 68.4166 8.03731 67.7724 7.17842L66.7037 5.7632L65.757 6.47569L63.7464 3.8063L68.4702 0.243862L74.4629 8.20323L72.5304 9.66237L71.4178 9.311C71.1445 10.5798 70.5296 11.5461 69.4023 12.3952C65.6496 15.2256 63.6049 14.0105 59.3544 8.36915C55.2796 2.95717 55.0795 -0.0196609 58.7249 -2.76225C60.7501 -4.28971 63.1413 -4.9046 65.147 -3.60162C65.7716 -3.19658 66.3767 -2.52801 67.2502 -1.37144L63.4731 1.47852L62.8387 0.639147C62.1946 -0.219743 61.5358 -0.249023 60.9502 0.190182C60.3646 0.629387 60.2133 1.27355 60.8623 2.12756L65.7911 8.67172Z" fill="#515054"/>
<path d="M76.6653 6.54565L65.8707 -7.77731L69.6527 -10.6224L80.4424 3.70058L76.6653 6.54565Z" fill="#515054"/>
<path d="M-5.88578 86.152C-4.67066 85.2345 -4.2949 84.6099 -5.49538 83.0141C-6.52018 81.6526 -7.08138 81.6135 -8.49658 82.6774L-5.88578 86.152ZM-3.30426 97.1565L-14.0988 82.8335L-9.84834 79.6273C-6.78858 77.3191 -4.41202 77.158 -1.89882 80.4862C0.594861 83.7998 0.243502 85.7225 -3.2213 88.3285L-3.87034 88.8214L0.341103 94.4041L-3.30426 97.1565Z" fill="#515054"/>
<path d="M6.72284 89.5952L-4.07172 75.2771L4.11692 69.1039L6.3422 72.0563L1.93556 75.3796L3.77044 77.8148L7.4158 75.0624L9.72892 78.1368L6.08356 80.8892L8.18684 83.6757L12.8228 80.1816L15.136 83.256L6.72284 89.5952Z" fill="#515054"/>
</g>
<mask id="mask3_14_197" style="mask-type:luminance" maskUnits="userSpaceOnUse" x="-1" y="0" width="167" height="166">
<path d="M-0.0174561 166H166V0.0244446H-0.0174561V166Z" fill="white"/>
</mask>
<g mask="url(#mask3_14_197)">
<path d="M17.2079 75.6279C17.8569 76.4819 18.5157 76.5209 19.0965 76.0768C19.6869 75.6376 19.8333 74.9934 19.1892 74.1346L18.1205 72.7193L17.1737 73.4318L15.1632 70.7576L19.887 67.2L25.8845 75.1594L23.9472 76.6136L22.8394 76.2623C22.5613 77.536 21.9464 78.5022 20.824 79.3465C17.0664 82.1769 15.0217 80.9666 10.7712 75.3204C6.69639 69.9133 6.50119 66.9365 10.1417 64.189C12.1669 62.6664 14.5581 62.0515 16.5637 63.3545C17.1884 63.7596 17.7984 64.4281 18.6719 65.5847L14.8899 68.4298L14.2555 67.5953C13.6113 66.7364 12.9525 66.7022 12.3669 67.1414C11.7813 67.5855 11.6301 68.2248 12.2791 69.0837L17.2079 75.6279Z" fill="#515054"/>
<path d="M28.0853 73.5017L17.2908 59.1787L21.0679 56.3337L31.8624 70.6566L28.0853 73.5017Z" fill="#515054"/>
<path d="M36.226 54.4198C37.4411 53.5023 37.8169 52.8777 36.6164 51.2819C35.5916 49.9253 35.0304 49.8813 33.6152 50.9452L36.226 54.4198ZM38.8075 65.4243L28.0129 51.1014L32.2634 47.8952C35.3232 45.5869 37.6997 45.4258 40.2129 48.754C42.7066 52.0676 42.3553 53.9903 38.8953 56.6012L38.2414 57.0892L42.4529 62.672L38.8075 65.4243Z" fill="#515054"/>
<path d="M48.835 57.8628L38.0404 43.5398L46.2339 37.3714L48.4543 40.3239L44.0477 43.6472L45.8826 46.0823L49.5279 43.33L51.841 46.4044L48.1957 49.1568L50.299 51.9433L54.935 48.4492L57.2481 51.5236L48.835 57.8628Z" fill="#515054"/>
<path d="M59.3198 43.8957C59.9689 44.7497 60.6277 44.7887 61.2133 44.3446C61.7989 43.9054 61.9502 43.2613 61.3011 42.4024L60.2324 40.9872L59.2857 41.6996L57.2751 39.0254L61.999 35.4678L67.9965 43.4272L66.064 44.8814L64.9514 44.5301C64.6732 45.8038 64.0583 46.77 62.9359 47.6143C59.1783 50.4447 57.1336 49.2345 52.8831 43.5882C48.8083 38.1811 48.6131 35.2043 52.2536 32.4568C54.2788 30.9342 56.67 30.3194 58.6757 31.6223C59.3003 32.0274 59.9103 32.6959 60.7838 33.8525L57.0018 36.6976L56.3723 35.8631C55.7233 35.0042 55.0645 34.9701 54.4789 35.4093C53.8982 35.8533 53.742 36.4926 54.391 37.3515L59.3198 43.8957Z" fill="#515054"/>
<path d="M70.1938 41.7681L59.3993 27.4451L63.1813 24.5952L73.9758 38.923L70.1938 41.7681Z" fill="#515054"/>
<path d="M78.3346 22.6847C79.5546 21.7721 79.9255 21.1426 78.725 19.5468C77.7002 18.1902 77.1439 18.1462 75.7238 19.2101L78.3346 22.6847ZM80.9161 33.6892L70.1265 19.3662L74.3769 16.1601C77.4367 13.8567 79.8133 13.6907 82.3216 17.0238C84.8201 20.3325 84.4688 22.2552 80.9991 24.8612L80.3501 25.3541L84.5615 30.9369L80.9161 33.6892Z" fill="#515054"/>
</g>
<path d="M90.9465 26.1318L80.152 11.8089L88.3406 5.64048L90.5659 8.59292L86.1544 11.9162L87.9893 14.3465L91.6346 11.599L93.9477 14.6735L90.3024 17.4209L92.4105 20.2074L97.0417 16.7182L99.3548 19.7926L90.9465 26.1318Z" fill="#515054"/>
<mask id="mask4_14_197" style="mask-type:luminance" maskUnits="userSpaceOnUse" x="0" y="0" width="167" height="166">
<path d="M0.0020752 166H166V0.0244446H0.0020752V166Z" fill="white"/>
</mask>
<g mask="url(#mask4_14_197)">
<path d="M101.432 12.1608C102.081 13.0197 102.735 13.0539 103.321 12.6147C103.911 12.1755 104.058 11.5264 103.409 10.6675L102.34 9.2523L101.398 9.96479L99.3828 7.29052L104.111 3.73295L110.109 11.6923L108.172 13.1515L107.059 12.7952C106.781 14.0689 106.171 15.0352 105.044 15.8794C101.291 18.7098 99.2461 17.4996 94.9956 11.8534C90.9208 6.44627 90.7208 3.46943 94.3661 0.72196C96.3864 -0.800617 98.7776 -1.4155 100.783 -0.112528C101.413 0.292517 102.018 0.961084 102.891 2.11766L99.1095 4.96761L98.48 4.12824C97.8358 3.26935 97.1721 3.24007 96.5865 3.67928C96.0058 4.11848 95.8545 4.76265 96.5036 5.61666L101.432 12.1608Z" fill="#515054"/>
<path d="M112.306 10.0347L101.511 -4.28829L105.288 -7.13337L116.088 7.1896L112.306 10.0347Z" fill="#515054"/>
<path d="M120.451 -9.04945C121.661 -9.96202 122.042 -10.5915 120.841 -12.1873C119.816 -13.544 119.25 -13.5879 117.84 -12.524L120.451 -9.04945ZM123.032 1.95508L112.233 -12.3679L116.488 -15.5741C119.548 -17.8775 121.925 -18.0434 124.438 -14.7103C126.927 -11.4016 126.58 -9.47889 123.115 -6.87294L122.461 -6.38006L126.678 -0.792393L123.032 1.95508Z" fill="#515054"/>
<path d="M0.251835 124.818L-10.5378 110.495L-2.3492 104.327L-0.128805 107.279L-4.53544 110.603L-2.70056 113.038L0.944795 110.29L3.25791 113.36L-0.387444 116.112L1.71583 118.904L6.35183 115.41L8.66495 118.479L0.251835 124.818Z" fill="#515054"/>
</g>
<mask id="mask5_14_197" style="mask-type:luminance" maskUnits="userSpaceOnUse" x="-1" y="0" width="167" height="166">
<path d="M-0.0174561 166H166V0.0244446H-0.0174561V166Z" fill="white"/>
</mask>
<g mask="url(#mask5_14_197)">
<path d="M10.7396 110.851C11.3838 111.705 12.0426 111.744 12.6282 111.305C13.2138 110.866 13.3651 110.217 12.716 109.358L11.6522 107.943L10.7055 108.655L8.69003 105.981L13.4188 102.423L19.4114 110.383L17.4789 111.837L16.3663 111.49C16.0881 112.759 15.4781 113.725 14.3508 114.575C10.5981 117.4 8.55339 116.19 4.30291 110.544C0.223233 105.137 0.0280335 102.16 3.67339 99.4122C5.69371 97.8897 8.08979 97.2748 10.0955 98.5777C10.7201 98.9828 11.3252 99.6514 12.1988 100.808L8.41675 103.653L7.78723 102.819C7.14307 101.96 6.48427 101.925 5.89379 102.365C5.31307 102.809 5.16179 103.453 5.81083 104.307L10.7396 110.851Z" fill="#515054"/>
<path d="M21.611 108.723L10.8213 94.4004L14.6033 91.5554L25.393 105.878L21.611 108.723Z" fill="#515054"/>
<path d="M29.7575 89.6405C30.9726 88.723 31.3484 88.0984 30.143 86.5026C29.1231 85.146 28.557 85.102 27.1418 86.1659L29.7575 89.6405ZM32.3341 100.645L21.5444 86.3221L25.7949 83.1159C28.8547 80.8076 31.2312 80.6466 33.7444 83.9748C36.2381 87.2883 35.8868 89.211 32.422 91.8219L31.7729 92.3099L35.9795 97.8927L32.3341 100.645Z" fill="#515054"/>
<path d="M42.3637 93.0837L31.574 78.7608L39.7577 72.5924L41.983 75.5448L37.5764 78.8681L39.4113 81.3033L43.0566 78.5558L45.3697 81.6254L41.7244 84.3777L43.8277 87.1691L48.4636 83.675L50.7768 86.7445L42.3637 93.0837Z" fill="#515054"/>
<path d="M52.8514 79.117C53.4956 79.971 54.1593 80.01 54.74 79.5708C55.3305 79.1316 55.4769 78.4825 54.8278 77.6237L53.764 76.2084L52.8173 76.9209L50.8018 74.2467L55.5306 70.6891L61.5232 78.6485L59.5907 80.1027L58.4781 79.7562C58.1999 81.0251 57.5899 81.9913 56.4626 82.8404C52.7099 85.666 50.6652 84.4557 46.4147 78.8095C42.335 73.4024 42.1398 70.4256 45.7852 67.6781C47.8104 66.1555 50.2016 65.5406 52.2073 66.8436C52.8319 67.2487 53.437 67.9172 54.3106 69.0738L50.5286 71.9189L49.899 71.0844C49.2549 70.2255 48.5961 70.1913 48.0105 70.6305C47.4249 71.0746 47.2736 71.7188 47.9226 72.5728L52.8514 79.117Z" fill="#515054"/>
<path d="M63.7229 76.9897L52.9332 62.6668L56.7103 59.8217L67.5049 74.1447L63.7229 76.9897Z" fill="#515054"/>
<path d="M71.87 57.9083C73.0803 56.9957 73.4609 56.3662 72.2555 54.7704C71.2356 53.4138 70.6695 53.3699 69.2543 54.4337L71.87 57.9083ZM74.4467 68.9128L63.6521 54.5899L67.9075 51.3837C70.9672 49.0803 73.3438 48.9144 75.8521 52.2475C78.3458 55.5561 77.9993 57.4789 74.5345 60.0897L73.8855 60.5777L78.0871 66.1605L74.4467 68.9128Z" fill="#515054"/>
<path d="M84.4756 61.3547L73.681 47.0318L81.8697 40.8585L84.0949 43.8158L79.6834 47.1391L81.5183 49.5694L85.1637 46.8268L87.4768 49.8964L83.8314 52.6438L85.9347 55.4352L90.5707 51.9411L92.8838 55.0155L84.4756 61.3547Z" fill="#515054"/>
<path d="M94.9602 47.3841C95.6092 48.243 96.268 48.2772 96.8536 47.838C97.4392 47.3988 97.5856 46.7497 96.9366 45.8908L95.8728 44.4756L94.926 45.1881L92.9106 42.5187L97.6393 38.9563L103.637 46.9156L101.699 48.3748L100.587 48.0234C100.309 49.2922 99.6987 50.2585 98.5714 51.1076C94.8187 53.938 92.774 52.7229 88.5235 47.0816C84.4487 41.6696 84.2486 38.6927 87.894 35.9502C89.9143 34.4227 92.3104 33.8078 94.316 35.1108C94.9407 35.5158 95.5507 36.1844 96.4193 37.341L92.6373 40.1909L92.0078 39.3515C91.3636 38.4927 90.7048 38.4634 90.1192 38.9026C89.5336 39.3418 89.3824 39.986 90.0314 40.84L94.9602 47.3841Z" fill="#515054"/>
<path d="M105.834 45.2573L95.0447 30.9344L98.8169 28.0893L109.616 42.4123L105.834 45.2573Z" fill="#515054"/>
<path d="M113.979 26.1732C115.189 25.2606 115.57 24.6311 114.37 23.0353C113.345 21.6787 112.779 21.6348 111.363 22.6986L113.979 26.1732ZM116.561 37.1777L105.761 22.8548L110.017 19.6486C113.076 17.3452 115.458 17.1793 117.966 20.5123C120.465 23.821 120.108 25.7438 116.644 28.3546L115.995 28.8426L120.206 34.4254L116.561 37.1777Z" fill="#515054"/>
<path d="M126.584 29.6201L115.794 15.2972L123.983 9.12877L126.208 12.0812L121.797 15.4045L123.632 17.8348L127.277 15.0922L129.595 18.1617L125.95 20.9092L128.048 23.7006L132.684 20.2065L135.002 23.2809L126.584 29.6201Z" fill="#515054"/>
</g>
<mask id="mask6_14_197" style="mask-type:luminance" maskUnits="userSpaceOnUse" x="0" y="0" width="167" height="166">
<path d="M0.0020752 166H166V0.0244446H0.0020752V166Z" fill="white"/>
</mask>
<g mask="url(#mask6_14_197)">
<path d="M137.075 15.65C137.719 16.5089 138.378 16.543 138.964 16.1038C139.545 15.6646 139.701 15.0156 139.052 14.1567L137.983 12.7415L137.036 13.454L135.026 10.7846L139.745 7.22213L145.747 15.1815L143.815 16.6406L142.702 16.2893C142.424 17.5581 141.809 18.5243 140.687 19.3735C136.934 22.2039 134.889 20.9888 130.639 15.3474C126.559 9.93544 126.364 6.95861 130.009 4.21602C132.029 2.68856 134.425 2.07368 136.426 3.37665C137.056 3.78169 137.661 4.45026 138.534 5.60683L134.752 8.45679L134.123 7.61742C133.479 6.75853 132.815 6.72925 132.229 7.16845C131.649 7.60766 131.497 8.25183 132.142 9.10583L137.075 15.65Z" fill="#515054"/>
<path d="M147.943 13.5222L137.153 -0.800744L140.935 -3.64582L151.725 10.6771L147.943 13.5222Z" fill="#515054"/>
<path d="M156.088 -5.56068C157.308 -6.47325 157.684 -7.10277 156.478 -8.69367C155.458 -10.0552 154.897 -10.0991 153.477 -9.0304L156.088 -5.56068ZM158.669 5.44385L147.88 -8.87911L152.125 -12.0853C155.185 -14.3838 157.566 -14.5546 160.075 -11.2215C162.573 -7.91286 162.222 -5.99012 158.752 -3.37929L158.103 -2.88641L162.315 2.69638L158.669 5.44385Z" fill="#515054"/>
<path d="M-6.21612 160.041L-17.0107 145.718L-8.82204 139.549L-6.59676 142.502L-11.0083 145.825L-9.1734 148.26L-5.52804 145.513L-3.21493 148.582L-6.86028 151.33L-4.75212 154.121L-0.121006 150.632L2.19211 153.701L-6.21612 160.041Z" fill="#515054"/>
<path d="M4.26795 146.074C4.91211 146.928 5.57091 146.967 6.15651 146.523C6.74211 146.084 6.89339 145.439 6.24435 144.581L5.18051 143.165L4.23379 143.878L2.21835 141.204L6.94219 137.646L12.9397 145.605L11.0072 147.06L9.89459 146.713C9.61643 147.982 9.00643 148.948 7.87915 149.792C4.12643 152.623 2.08171 151.413 -2.16877 145.766C-6.24845 140.359 -6.44365 137.383 -2.79829 134.635C-0.777967 133.112 1.61811 132.498 3.62379 133.801C4.24843 134.206 4.85355 134.874 5.72707 136.031L1.94507 138.876L1.31555 138.041C0.671392 137.182 0.0125923 137.148 -0.577888 137.587C-1.15861 138.032 -1.30989 138.676 -0.660848 139.53L4.26795 146.074Z" fill="#515054"/>
</g>
<path d="M15.1426 143.947L4.34802 129.624L8.13002 126.774L18.9246 141.102L15.1426 143.947Z" fill="#515054"/>
<mask id="mask7_14_197" style="mask-type:luminance" maskUnits="userSpaceOnUse" x="-1" y="0" width="167" height="166">
<path d="M-0.0174561 166H166V0.0244446H-0.0174561V166Z" fill="white"/>
</mask>
<g mask="url(#mask7_14_197)">
<path d="M23.2868 124.864C24.5019 123.946 24.8776 123.322 23.6723 121.726C22.6524 120.369 22.0863 120.325 20.6711 121.389L23.2868 124.864ZM25.8634 135.868L15.0688 121.545L19.3242 118.339C22.384 116.031 24.7605 115.87 27.2688 119.198C29.7674 122.511 29.416 124.434 25.9512 127.04L25.3022 127.533L29.5088 133.116L25.8634 135.868Z" fill="#515054"/>
<path d="M35.8948 128.307L25.1002 113.984L33.2889 107.816L35.5141 110.768L31.1026 114.091L32.9375 116.526L36.5829 113.779L38.896 116.849L35.2555 119.596L37.3588 122.392L41.9899 118.898L44.303 121.968L35.8948 128.307Z" fill="#515054"/>
<path d="M46.3805 114.34C47.0247 115.194 47.6835 115.233 48.2691 114.789C48.8547 114.35 49.0059 113.705 48.3569 112.846L47.2931 111.431L46.3463 112.139L44.3309 109.469L49.0596 105.912L55.0571 113.871L53.1198 115.326L52.0071 114.979C51.729 116.248 51.119 117.214 49.9917 118.058C46.239 120.889 44.1943 119.679 39.9438 114.032C35.8641 108.625 35.6689 105.648 39.3143 102.901C41.3395 101.378 43.7307 100.763 45.7363 102.066C46.361 102.471 46.9661 103.14 47.8396 104.297L44.0576 107.142L43.433 106.307C42.7839 105.448 42.1251 105.414 41.5347 105.853C40.9539 106.297 40.8027 106.942 41.4517 107.796L46.3805 114.34Z" fill="#515054"/>
<path d="M57.2545 112.213L46.46 97.8897L50.242 95.0446L61.0365 109.368L57.2545 112.213Z" fill="#515054"/>
<path d="M65.3987 93.1293C66.6138 92.2118 66.9896 91.5872 65.7842 89.9914C64.7643 88.6347 64.2031 88.5908 62.783 89.6547L65.3987 93.1293ZM67.9802 104.134L57.1857 89.8108L61.4361 86.6046C64.4959 84.2964 66.8725 84.1353 69.3808 87.4635C71.8793 90.7771 71.528 92.6998 68.0632 95.3058L67.4141 95.7987L71.6207 101.381L67.9802 104.134Z" fill="#515054"/>
<path d="M78.0044 96.5725L67.2147 82.2495L75.3985 76.0812L77.6238 79.0336L73.2171 82.3569L75.052 84.7921L78.6925 82.0446L81.0056 85.1141L77.3651 87.8616L79.4684 90.6579L84.0995 87.1638L86.4224 90.2333L78.0044 96.5725Z" fill="#515054"/>
<path d="M88.4892 82.6054C89.1382 83.4594 89.797 83.4984 90.3826 83.0544C90.9682 82.6152 91.1146 81.971 90.4753 81.1121L89.4017 79.6969L88.455 80.4094L86.4444 77.7351L91.1683 74.1775L97.1658 82.1369L95.2333 83.5912L94.1158 83.2447C93.8376 84.5135 93.2276 85.4797 92.1004 86.324C88.3476 89.1544 86.3029 87.9442 82.0524 82.2979C77.9776 76.8908 77.7824 73.914 81.4229 71.1665C83.453 69.644 85.8442 69.0291 87.845 70.3321C88.4696 70.7371 89.0796 71.4057 89.9483 72.5622L86.176 75.4073L85.5368 74.5728C84.8975 73.7139 84.2338 73.6798 83.6531 74.119C83.0626 74.5631 82.9113 75.2072 83.5604 76.0612L88.4892 82.6054Z" fill="#515054"/>
<path d="M99.3632 80.478L88.5735 66.1551L92.3457 63.31L103.145 77.633L99.3632 80.478Z" fill="#515054"/>
<path d="M107.507 61.3966C108.722 60.484 109.098 59.8545 107.898 58.2587C106.873 56.9021 106.307 56.8581 104.896 57.922L107.507 61.3966ZM110.089 72.4011L99.2893 58.0782L103.545 54.872C106.604 52.5686 108.986 52.4027 111.494 55.7357C113.993 59.0444 113.637 60.9672 110.172 63.5731L109.523 64.066L113.734 69.6488L110.089 72.4011Z" fill="#515054"/>
<path d="M120.113 64.8433L109.323 50.5203L117.512 44.3519L119.737 47.3043L115.326 50.6277L117.16 53.0579L120.806 50.3153L123.124 53.3849L119.478 56.1324L121.577 58.9238L126.213 55.4296L128.531 58.5041L120.113 64.8433Z" fill="#515054"/>
<path d="M130.605 50.8722C131.249 51.7311 131.908 51.7653 132.493 51.3261C133.074 50.8869 133.23 50.2378 132.581 49.3789L131.512 47.9637L130.566 48.6762L128.555 46.0019L133.274 42.4444L139.272 50.4038L137.344 51.8629L136.231 51.5115C135.953 52.7803 135.338 53.7466 134.216 54.5908C130.463 57.4213 128.419 56.211 124.168 50.5648C120.088 45.1577 119.893 42.1809 123.539 39.4334C125.559 37.9108 127.955 37.2959 129.956 38.5989C130.585 39.0039 131.19 39.6725 132.064 40.8291L128.282 43.679L127.652 42.8397C127.008 41.9808 126.345 41.9515 125.759 42.3907C125.178 42.8299 125.027 43.4741 125.671 44.3281L130.605 50.8722Z" fill="#515054"/>
<path d="M141.479 48.7456L130.684 34.4226L134.461 31.5776L145.251 45.9005L141.479 48.7456Z" fill="#515054"/>
</g>
<mask id="mask8_14_197" style="mask-type:luminance" maskUnits="userSpaceOnUse" x="0" y="0" width="167" height="166">
<path d="M0.0020752 166H166V0.0244446H0.0020752V166Z" fill="white"/>
</mask>
<g mask="url(#mask8_14_197)">
<path d="M149.623 29.6627C150.833 28.7501 151.214 28.1206 150.003 26.5248C148.988 25.1682 148.422 25.1243 147.002 26.1881L149.623 29.6627ZM152.199 40.6672L141.405 26.3443L145.66 23.1381C148.715 20.8347 151.096 20.6688 153.605 24.0018C156.098 27.3105 155.752 29.2333 152.287 31.8392L151.633 32.3321L155.84 37.9198L152.199 40.6672Z" fill="#515054"/>
<path d="M162.228 33.1089L151.439 18.7859L159.622 12.6175L161.848 15.57L157.436 18.8933L159.271 21.3236L162.916 18.581L165.23 21.6505L161.584 24.398L163.692 27.1894L168.324 23.6953L170.637 26.7697L162.228 33.1089Z" fill="#515054"/>
<path d="M172.713 19.1377C173.362 19.9966 174.021 20.0308 174.606 19.5916C175.192 19.1523 175.338 18.5033 174.689 17.6444L173.626 16.2292L172.679 16.9417L170.663 14.2674L175.392 10.7099L181.39 18.6692L179.452 20.1284L178.34 19.777C178.061 21.0458 177.451 22.0121 176.324 22.8612C172.571 25.6867 170.527 24.4765 166.276 18.8303C162.201 13.4232 162.001 10.4463 165.647 7.69886C167.667 6.17628 170.068 5.56139 172.069 6.86437C172.693 7.26941 173.303 7.93798 174.172 9.09455L170.39 11.9445L169.761 11.1051C169.116 10.2462 168.458 10.217 167.867 10.6562C167.286 11.0954 167.135 11.7395 167.784 12.5936L172.713 19.1377Z" fill="#515054"/>
<path d="M8.67114 179.169L-2.12341 164.846L1.65859 161.997L12.4483 176.324L8.67114 179.169Z" fill="#515054"/>
<path d="M16.8153 160.087C18.0305 159.169 18.4062 158.544 17.2057 156.949C16.1809 155.592 15.6197 155.548 14.2045 156.612L16.8153 160.087ZM19.392 171.091L8.60229 156.768L12.8528 153.562C15.9125 151.259 18.2891 151.093 20.8023 154.421C23.296 157.734 22.9446 159.657 19.4798 162.263L18.8308 162.756L23.0373 168.339L19.392 171.091Z" fill="#515054"/>
</g>
<path d="M29.4244 163.53L18.6299 149.212L26.8185 143.038L29.0438 145.991L24.6372 149.314L26.472 151.749L30.1174 149.002L32.4305 152.071L28.7852 154.819L30.8884 157.61L35.5196 154.121L37.8327 157.191L29.4244 163.53Z" fill="#515054"/>
<mask id="mask9_14_197" style="mask-type:luminance" maskUnits="userSpaceOnUse" x="-1" y="0" width="167" height="166">
<path d="M-0.0174561 166H166V0.0244446H-0.0174561V166Z" fill="white"/>
</mask>
<g mask="url(#mask9_14_197)">
<path d="M39.9091 149.562C40.5581 150.421 41.2169 150.455 41.7976 150.016C42.3881 149.577 42.5345 148.928 41.8904 148.069L40.8216 146.654L39.8749 147.366L37.8644 144.692L42.5882 141.134L48.5857 149.094L46.6484 150.548L45.5357 150.201C45.2624 151.47 44.6476 152.436 43.5252 153.286C39.7676 156.111 37.7228 154.901 33.4724 149.255C29.3976 143.847 29.2024 140.871 32.8428 138.123C34.868 136.601 37.2592 135.986 39.2649 137.289C39.8896 137.694 40.4996 138.362 41.3731 139.519L37.5911 142.364L36.9567 141.529C36.3125 140.671 35.6537 140.641 35.0681 141.08C34.4825 141.52 34.3312 142.164 34.9803 143.018L39.9091 149.562Z" fill="#515054"/>
<path d="M50.7831 147.435L39.9885 133.112L43.7705 130.262L54.5651 144.59L50.7831 147.435Z" fill="#515054"/>
<path d="M58.9269 128.352C60.142 127.434 60.5178 126.81 59.3173 125.214C58.2925 123.857 57.7313 123.813 56.3161 124.877L58.9269 128.352ZM61.5084 139.356L50.7139 125.033L54.9643 121.827C58.0241 119.524 60.4007 119.358 62.9139 122.686C65.4075 126 65.0562 127.922 61.5914 130.528L60.9423 131.021L65.1489 136.604L61.5084 139.356Z" fill="#515054"/>
<path d="M71.5359 131.795L60.7413 117.477L68.93 111.304L71.1552 114.256L66.7486 117.58L68.5835 120.015L72.224 117.267L74.542 120.337L70.8966 123.084L72.9999 125.876L77.631 122.386L79.9441 125.456L71.5359 131.795Z" fill="#515054"/>
<path d="M82.018 117.827C82.667 118.686 83.3258 118.72 83.9114 118.281C84.497 117.842 84.6434 117.193 84.0041 116.334L82.9305 114.919L81.9838 115.631L79.9732 112.957L84.6971 109.4L90.6946 117.359L88.7621 118.813L87.6446 118.467C87.3762 119.736 86.7564 120.702 85.634 121.551C81.8764 124.376 79.8317 123.166 75.5812 117.52C71.5113 112.113 71.3112 109.136 74.9566 106.389C76.9818 104.866 79.373 104.251 81.3738 105.554C81.9984 105.959 82.6084 106.628 83.482 107.784L79.7048 110.629L79.0656 109.795C78.4263 108.936 77.7675 108.907 77.1819 109.346C76.5963 109.785 76.445 110.429 77.094 111.283L82.018 117.827Z" fill="#515054"/>
<path d="M92.8922 115.701L82.1025 101.378L85.8845 98.5334L96.6742 112.856L92.8922 115.701Z" fill="#515054"/>
<path d="M101.036 96.6178C102.256 95.7052 102.627 95.0757 101.427 93.4799C100.402 92.1233 99.8408 92.0793 98.4256 93.1432L101.036 96.6178ZM103.618 107.622L92.8282 93.2994L97.0738 90.0932C100.134 87.7947 102.515 87.6238 105.023 90.9569C107.522 94.2656 107.171 96.1883 103.701 98.7992L103.052 99.2872L107.263 104.87L103.618 107.622Z" fill="#515054"/>
<path d="M113.642 100.064L102.852 85.7461L111.041 79.5729L113.266 82.5253L108.855 85.8486L110.69 88.2789L114.335 85.5363L116.648 88.6058L113.008 91.3533L115.106 94.1447L119.742 90.6506L122.06 93.725L113.642 100.064Z" fill="#515054"/>
<path d="M124.133 86.0931C124.782 86.9569 125.436 86.9862 126.021 86.5469C126.612 86.1077 126.758 85.4587 126.109 84.5998L125.041 83.1846L124.099 83.8971L122.083 81.2277L126.812 77.6652L132.805 85.6246L130.872 87.0838L129.76 86.7324C129.481 88.0012 128.867 88.9675 127.744 89.8166C123.991 92.647 121.947 91.4319 117.696 85.7905C113.621 80.3786 113.421 77.4066 117.067 74.6591C119.087 73.1317 121.483 72.5168 123.484 73.8198C124.113 74.2248 124.719 74.8934 125.592 76.0499L121.81 78.8999L121.181 78.0605C120.536 77.2016 119.873 77.1724 119.287 77.6116C118.706 78.0508 118.555 78.6949 119.204 79.5538L124.133 86.0931Z" fill="#515054"/>
<path d="M135.007 83.9668L124.213 69.6438L127.99 66.7988L138.779 81.1217L135.007 83.9668Z" fill="#515054"/>
<path d="M143.152 64.8849C144.362 63.9723 144.743 63.3428 143.533 61.747C142.517 60.3903 141.951 60.3464 140.541 61.4103L143.152 64.8849ZM145.724 75.8845L134.934 61.5664L139.189 58.3602C142.249 56.0617 144.626 55.8909 147.139 59.224C149.628 62.5327 149.281 64.4554 145.816 67.0663L145.162 67.5543L149.369 73.1371L145.724 75.8845Z" fill="#515054"/>
</g>
<path d="M155.757 68.3301L144.967 54.012L153.151 47.8387L155.376 50.796L150.97 54.1145L152.804 56.5447L156.445 53.8022L158.758 56.8717L155.122 59.6192L157.221 62.4106L161.852 58.9213L164.165 61.9909L155.757 68.3301Z" fill="#515054"/>
<mask id="mask10_14_197" style="mask-type:luminance" maskUnits="userSpaceOnUse" x="0" y="0" width="167" height="166">
<path d="M0.0020752 166H166V0.0244446H0.0020752V166Z" fill="white"/>
</mask>
<g mask="url(#mask10_14_197)">
<path d="M166.241 54.3609C166.89 55.2247 167.549 55.254 168.135 54.8148C168.72 54.3756 168.867 53.7265 168.227 52.8676L167.154 51.4524L166.207 52.1649L164.197 49.4955L168.92 45.9331L174.918 53.8924L172.981 55.3516L171.868 55.0002C171.6 56.269 170.98 57.2353 169.857 58.0844C166.1 60.9148 164.055 59.6997 159.805 54.0584C155.73 48.6464 155.53 45.6695 159.175 42.927C161.205 41.3995 163.596 40.7846 165.597 42.0876C166.222 42.4926 166.832 43.1612 167.7 44.3178L163.928 47.1677L163.289 46.3284C162.65 45.4695 161.986 45.4402 161.405 45.8794C160.82 46.3186 160.663 46.9628 161.313 47.8217L166.241 54.3609Z" fill="#515054"/>
<path d="M52.4532 163.575C53.6683 162.662 54.044 162.032 52.8436 160.437C51.8188 159.08 51.2576 159.036 49.8424 160.105L52.4532 163.575ZM55.0347 174.579L44.2401 160.256L48.4955 157.05C51.5504 154.747 53.9318 154.581 56.4401 157.914C58.9387 161.222 58.5824 163.145 55.1225 165.756L54.4686 166.249L58.68 171.832L55.0347 174.579Z" fill="#515054"/>
<path d="M65.0621 167.021L54.2676 152.698L62.4562 146.53L64.6815 149.482L60.2749 152.806L62.1097 155.241L65.7502 152.493L68.0682 155.563L64.4229 158.31L66.5261 161.102L71.1621 157.608L73.4753 160.682L65.0621 167.021Z" fill="#515054"/>
</g>
<mask id="mask11_14_197" style="mask-type:luminance" maskUnits="userSpaceOnUse" x="-1" y="0" width="167" height="166">
<path d="M-0.0174561 166H166V0.0244446H-0.0174561V166Z" fill="white"/>
</mask>
<g mask="url(#mask11_14_197)">
<path d="M75.5503 153.051C76.1945 153.91 76.8533 153.944 77.4389 153.505C78.0245 153.066 78.1709 152.416 77.5267 151.558L76.4629 150.147L75.5162 150.855L73.5007 148.185L78.2246 144.623L84.2221 152.582L82.2896 154.042L81.177 153.695C80.8988 154.959 80.2888 155.925 79.1566 156.774C75.4039 159.605 73.3641 158.39 69.1087 152.748C65.0339 147.336 64.8387 144.359 68.4841 141.617C70.5044 140.089 72.9005 139.475 74.9062 140.778C75.5308 141.183 76.1359 141.851 77.0094 143.008L73.2274 145.858L72.5979 145.018C71.9538 144.159 71.295 144.13 70.7045 144.569C70.1238 145.009 69.9725 145.653 70.6167 146.507L75.5503 153.051Z" fill="#515054"/>
<path d="M86.421 150.924L75.6313 136.601L79.4036 133.751L90.203 148.079L86.421 150.924Z" fill="#515054"/>
<path d="M94.5651 131.84C95.7753 130.928 96.156 130.298 94.9555 128.702C93.9307 127.346 93.3646 127.302 91.9543 128.37L94.5651 131.84ZM97.1466 142.845L86.3472 128.522L90.6025 125.316C93.6623 123.012 96.0437 122.846 98.552 126.179C101.051 129.488 100.694 131.411 97.2296 134.022L96.5756 134.514L100.792 140.097L97.1466 142.845Z" fill="#515054"/>
<path d="M107.171 135.287L96.3809 120.964L104.569 114.796L106.795 117.748L102.383 121.071L104.218 123.506L107.863 120.759L110.181 123.828L106.536 126.576L108.635 129.372L113.271 125.873L115.589 128.948L107.171 135.287Z" fill="#515054"/>
<path d="M117.661 121.317C118.305 122.176 118.964 122.21 119.55 121.771C120.13 121.331 120.286 120.682 119.637 119.823L118.569 118.413L117.622 119.121L115.611 116.451L120.33 112.889L126.333 120.848L124.4 122.307L123.288 121.961C123.009 123.225 122.395 124.191 121.272 125.04C117.519 127.871 115.475 126.656 111.224 121.014C107.145 115.602 106.949 112.625 110.595 109.883C112.615 108.355 115.011 107.74 117.012 109.043C117.641 109.448 118.247 110.117 119.12 111.274L115.338 114.124L114.709 113.284C114.064 112.425 113.401 112.396 112.815 112.835C112.234 113.274 112.083 113.919 112.727 114.773L117.661 121.317Z" fill="#515054"/>
<path d="M128.529 119.193L117.74 104.87L121.522 102.02L132.311 116.343L128.529 119.193Z" fill="#515054"/>
<path d="M136.68 100.106C137.895 99.1933 138.271 98.5637 137.061 96.968C136.046 95.6113 135.48 95.5674 134.06 96.6361L136.68 100.106ZM139.257 111.11L128.462 96.7874L132.713 93.5812C135.772 91.2827 138.154 91.1119 140.662 94.445C143.156 97.7585 142.809 99.6764 139.34 102.292L138.691 102.78L142.897 108.363L139.257 111.11Z" fill="#515054"/>
</g>
<path d="M149.286 103.556L138.491 89.2327L146.68 83.0643L148.905 86.0167L144.493 89.3352L146.328 91.7703L149.974 89.0229L152.287 92.0973L148.641 94.8399L150.745 97.6362L155.381 94.142L157.694 97.2165L149.286 103.556Z" fill="#515054"/>
<mask id="mask12_14_197" style="mask-type:luminance" maskUnits="userSpaceOnUse" x="0" y="0" width="167" height="166">
<path d="M0.0020752 166H166V0.0244446H0.0020752V166Z" fill="white"/>
</mask>
<g mask="url(#mask12_14_197)">
<path d="M159.771 89.5856C160.42 90.4445 161.074 90.4787 161.659 90.0346C162.25 89.5954 162.396 88.9512 161.747 88.0923L160.679 86.6771L159.737 87.3896L157.721 84.7202L162.45 81.1578L168.448 89.1172L166.51 90.5763L165.398 90.2249C165.119 91.4937 164.509 92.46 163.382 93.3042C159.629 96.1396 157.585 94.9244 153.334 89.2782C149.259 83.8711 149.059 80.8943 152.705 78.1517C154.725 76.6242 157.121 76.0093 159.127 77.3123C159.751 77.7174 160.361 78.3859 161.23 79.5425L157.448 82.3924L156.823 81.5531C156.174 80.6942 155.511 80.66 154.925 81.0992C154.344 81.5433 154.193 82.1826 154.842 83.0415L159.771 89.5856Z" fill="#515054"/>
<path d="M170.645 87.459L159.855 73.136L163.627 70.2861L174.427 84.609L170.645 87.459Z" fill="#515054"/>
<path d="M88.0944 167.063C89.3046 166.151 89.6804 165.521 88.4848 163.925C87.46 162.569 86.8939 162.525 85.4787 163.594L88.0944 167.063ZM90.6759 178.068L79.8765 163.745L84.1318 160.539C87.1916 158.235 89.573 158.069 92.0813 161.402C94.5799 164.711 94.2285 166.634 90.7589 169.245L90.1098 169.733L94.3213 175.32L90.6759 178.068Z" fill="#515054"/>
<path d="M100.699 170.51L89.9097 156.187L98.0983 150.019L100.324 152.971L95.9121 156.294L97.7469 158.725L101.392 155.977L103.705 159.052L100.065 161.799L102.163 164.591L106.799 161.096L109.117 164.171L100.699 170.51Z" fill="#515054"/>
</g>
<mask id="mask13_14_197" style="mask-type:luminance" maskUnits="userSpaceOnUse" x="-1" y="0" width="167" height="166">
<path d="M-0.0174561 166H166V0.0244446H-0.0174561V166Z" fill="white"/>
</mask>
<g mask="url(#mask13_14_197)">
<path d="M111.191 156.54C111.835 157.398 112.494 157.433 113.079 156.993C113.67 156.554 113.816 155.905 113.167 155.046L112.098 153.636L111.157 154.344L109.141 151.674L113.86 148.112L119.862 156.071L117.93 157.53L116.817 157.179C116.539 158.448 115.924 159.414 114.802 160.263C111.049 163.089 109.004 161.878 104.754 156.237C100.679 150.825 100.479 147.853 104.124 145.106C106.145 143.578 108.541 142.963 110.542 144.266C111.171 144.671 111.776 145.34 112.65 146.496L108.868 149.346L108.238 148.507C107.594 147.648 106.93 147.619 106.345 148.058C105.764 148.497 105.613 149.141 106.257 149.995L111.191 156.54Z" fill="#515054"/>
<path d="M122.058 154.416L111.268 140.093L115.05 137.248L125.84 151.566L122.058 154.416Z" fill="#515054"/>
<path d="M130.209 135.329C131.424 134.417 131.8 133.787 130.589 132.192C129.574 130.835 129.008 130.791 127.588 131.86L130.209 135.329ZM132.785 146.334L121.991 132.011L126.241 128.805C129.301 126.506 131.682 126.336 134.191 129.669C136.684 132.982 136.338 134.9 132.873 137.511L132.219 137.999L136.426 143.587L132.785 146.334Z" fill="#515054"/>
<path d="M142.814 138.779L132.02 124.456L140.208 118.283L142.434 121.24L138.022 124.559L139.857 126.989L143.502 124.246L145.815 127.321L142.17 130.063L144.278 132.855L148.909 129.365L151.222 132.435L142.814 138.779Z" fill="#515054"/>
</g>
<mask id="mask14_14_197" style="mask-type:luminance" maskUnits="userSpaceOnUse" x="0" y="0" width="167" height="166">
<path d="M0.0020752 166H166V0.0244446H0.0020752V166Z" fill="white"/>
</mask>
<g mask="url(#mask14_14_197)">
<path d="M153.299 124.805C153.948 125.669 154.607 125.698 155.193 125.259C155.778 124.82 155.925 124.176 155.275 123.312L154.212 121.902L153.265 122.614L151.249 119.94L155.978 116.377L161.976 124.337L160.038 125.796L158.926 125.445C158.648 126.713 158.038 127.68 156.91 128.529C153.158 131.359 151.113 130.144 146.862 124.503C142.788 119.091 142.587 116.114 146.233 113.371C148.253 111.844 150.649 111.229 152.655 112.532C153.28 112.937 153.89 113.606 154.758 114.762L150.976 117.612L150.347 116.773C149.703 115.914 149.039 115.885 148.453 116.324C147.873 116.763 147.721 117.407 148.37 118.266L153.299 124.805Z" fill="#515054"/>
<path d="M164.173 122.681L153.378 108.358L157.156 105.513L167.955 119.831L164.173 122.681Z" fill="#515054"/>
<path d="M172.318 103.595C173.533 102.682 173.909 102.053 172.708 100.457C171.683 99.1003 171.117 99.0564 169.702 100.125L172.318 103.595ZM174.899 114.599L164.1 100.276L168.355 97.0702C171.415 94.7717 173.796 94.6009 176.305 97.934C178.793 101.248 178.452 103.165 174.982 105.776L174.333 106.264L178.545 111.852L174.899 114.599Z" fill="#515054"/>
<path d="M126.176 168.714C127.396 167.797 127.767 167.172 126.566 165.581C125.541 164.219 124.975 164.176 123.565 165.239L126.176 168.714ZM128.757 179.719L117.968 165.396L122.213 162.189C125.273 159.886 127.654 159.72 130.163 163.048C132.661 166.362 132.31 168.285 128.84 170.895L128.191 171.383L132.403 176.971L128.757 179.719Z" fill="#515054"/>
<path d="M138.788 172.16L127.993 157.837L136.182 151.668L138.407 154.621L133.995 157.939L135.83 160.379L139.476 157.632L141.789 160.701L138.143 163.449L140.247 166.24L144.883 162.746L147.196 165.816L138.788 172.16Z" fill="#515054"/>
</g>
<mask id="mask15_14_197" style="mask-type:luminance" maskUnits="userSpaceOnUse" x="-1" y="0" width="167" height="166">
<path d="M-0.0174561 166H166V0.0244446H-0.0174561V166Z" fill="white"/>
</mask>
<g mask="url(#mask15_14_197)">
<path d="M149.273 158.193C149.917 159.047 150.576 159.086 151.161 158.642C151.742 158.203 151.898 157.559 151.249 156.7L150.18 155.28L149.234 155.997L147.223 153.323L151.952 149.765L157.949 157.72L156.012 159.179L154.899 158.827C154.621 160.101 154.006 161.067 152.884 161.912C149.131 164.742 147.086 163.532 142.836 157.881C138.756 152.478 138.561 149.502 142.206 146.754C144.227 145.232 146.623 144.617 148.624 145.92C149.253 146.325 149.858 146.988 150.732 148.15L146.95 150.995L146.32 150.16C145.676 149.302 145.012 149.262 144.427 149.707C143.846 150.146 143.695 150.79 144.339 151.649L149.273 158.193Z" fill="#515054"/>
</g>
<path d="M160.147 156.066L149.352 141.743L153.129 138.893L163.919 153.216L160.147 156.066Z" fill="#515054"/>
<mask id="mask16_14_197" style="mask-type:luminance" maskUnits="userSpaceOnUse" x="0" y="0" width="167" height="166">
<path d="M0.0020752 166H166V0.0244446H0.0020752V166Z" fill="white"/>
</mask>
<g mask="url(#mask16_14_197)">
<path d="M168.291 136.979C169.506 136.062 169.882 135.437 168.671 133.846C167.656 132.485 167.09 132.441 165.68 133.505L168.291 136.979ZM170.872 147.984L160.073 133.661L164.328 130.455C167.388 128.151 169.764 127.985 172.273 131.314C174.766 134.627 174.42 136.55 170.955 139.161L170.301 139.649L174.518 145.236L170.872 147.984Z" fill="#515054"/>
</g>
<mask id="mask17_14_197" style="mask-type:luminance" maskUnits="userSpaceOnUse" x="-1" y="0" width="167" height="166">
<path d="M-0.0174561 166H166V0.0244446H-0.0174561V166Z" fill="white"/>
</mask>
<g mask="url(#mask17_14_197)">
<path d="M85.8391 41.0507C85.8635 41.1044 85.8879 41.1385 85.9123 41.1873C85.9172 41.1581 85.9318 41.1093 85.9416 41.0653C85.8781 41.0653 85.8391 41.0605 85.8391 41.0507ZM28.6894 124.612C28.6845 124.407 28.6699 124.202 28.6699 123.992C28.6699 124.441 28.6796 124.631 28.6894 124.612ZM62.5176 10.9456C63.474 9.20834 64.1719 7.6272 64.1719 6.72927C64.1719 7.43688 63.3667 8.93506 62.5176 10.9456ZM93.8911 100.485C93.8569 100.47 93.8569 100.446 93.8276 100.421L94.0668 100.358C94.0033 100.407 93.9545 100.456 93.8911 100.485ZM65.6261 67.9203C65.6261 66.793 65.6847 66.4611 65.7676 66.3831C65.7286 69.5893 65.6749 69.6185 65.6261 67.9203ZM140.871 17.7191C140.871 18.5146 125.513 35.3508 125.513 36.3951C125.513 36.5318 123.156 41.5289 115.475 39.5525C115.475 43.6566 92.8419 48.5318 92.2709 47.4631C95.0964 44.7156 107.126 31.0661 107.126 30.2121C107.126 29.9583 111.254 24.6098 109.19 23.1214C109.19 18.5732 102.104 9.26202 102.104 10.0087C102.104 12.1852 110.634 19.3881 101.514 28.8018C101.514 27.4109 89.0355 42.4659 89.0355 42.4122C88.8354 41.1337 88.6792 43.154 88.606 43.7054C88.606 39.2841 87.2836 44.1837 85.9123 41.1873C85.8684 41.3386 85.8391 41.4704 85.8391 41.568C84.9997 40.2552 84.1506 41.8949 83.5943 43.4224C83.5943 42.4561 82.4036 45.2866 82.4036 42.2317C81.8521 43.2418 81.0079 41.3435 80.1588 41.9047C80.066 41.7583 79.9782 41.6412 79.8952 41.5436C80.0514 41.5485 80.1588 41.5485 80.1588 41.5485C80.1588 41.5777 78.4215 35.7558 78.4215 35.6631C76.9624 33.4085 76.3816 36.0096 76.3816 35.9315C76.3816 35.9901 78.114 41.3825 78.1238 41.4362C77.6797 41.5582 77.3918 41.3386 77.3918 39.3622C77.3284 40.5285 77.1966 41.4509 77.0502 42.1243C77.0502 42.3732 64.7575 29.6118 64.7575 29.28C58.433 22.6724 60.5948 15.4939 62.5176 10.9456C60.424 14.7618 57.0812 19.3491 57.0812 19.2661C55.0219 23.9851 59.1504 27.8794 59.1504 28.3089C59.1504 29.075 71.5212 41.4216 71.5212 44.3691C71.5212 43.8274 73.7074 47.5168 74.1124 45.8478C73.9563 47.2923 73.8392 48.0487 73.7074 47.9999C73.7074 49.5762 50.5176 41.3533 50.5176 41.4899C42.8414 41.0507 40.4795 37.4053 40.4795 36.7953C40.4795 35.4728 25.1368 19.637 25.1368 16.3967C23.946 22.8725 24.8342 21.8623 24.8342 23.4386C24.8342 21.0132 35.7508 36.0096 35.7508 37.5273C38.7178 44.457 46.3843 45.6965 46.3843 44.2618C47.8629 44.862 71.7798 51.8015 71.7798 51.6551V54.5977C71.7798 52.3724 33.9842 57.111 33.9842 55.9446C34.277 58.0528 37.532 57.3647 37.532 59.8975C37.532 59.9853 70.5159 59.102 70.5159 61.5128C70.0181 61.5957 67.1731 65.4363 66.1483 65.8023C66.158 65.6559 66.1629 65.5242 66.1629 65.2948C66.1629 65.5291 66.0897 65.695 65.9775 65.8316C65.8555 65.8121 65.7823 65.695 65.7823 65.451C65.7823 65.6462 65.7774 65.7926 65.7725 65.978C64.8063 66.5685 61.766 66.2513 54.9487 68.989C54.9487 69.9943 46.6868 80.5255 46.6868 81.6723C46.6868 78.7198 29.5629 99.9774 29.5629 99.9871C29.5629 103.701 28.826 124.431 28.6894 124.612C28.7968 127.799 29.7386 130.907 32.5056 132.669C32.5056 133.943 32.8032 109.088 34.5796 101.407C34.5796 104.106 47.5701 89.2168 51.7035 80.545C51.7035 84.6442 57.8962 75.377 63.2154 74.1814C63.2154 72.9467 63.2935 71.5754 63.2935 74.6401C63.2447 71.0874 63.2349 73.9471 63.2252 75.3965V75.4112C63.4936 78.3734 64.3085 87.1428 64.3085 92.2718C64.3085 90.9883 64.3964 86.4645 64.3964 87.1672C64.3964 92.0912 64.4061 89.3535 64.4061 88.8313C65.6261 94.8045 68.5346 98.2303 71.6676 99.9774V99.9822C71.77 100.002 72.4288 100.182 72.4288 100.192C72.341 100.265 72.3312 100.358 72.2288 100.426C72.0189 100.28 71.8432 100.138 71.6676 99.992C71.648 101.036 71.6334 101.466 71.6188 101.69C71.7993 100.607 72.2532 101.202 72.8876 103.389C74.4931 102.871 76.0986 104.906 77.5333 102.832C79.4658 104.618 81.491 103.633 82.9989 106.502C83.2624 103.667 83.5845 105.79 83.8822 106.463C83.7846 103.652 83.687 106.258 83.5943 104.975C83.5943 103.598 83.8529 104.057 84.3068 105.633C84.5654 104.116 84.8338 106.834 85.1217 102.598C87.1616 103.418 90.9289 103.325 94.4181 101.466C94.4181 99.831 94.4474 99.6065 94.4572 102.027C94.4572 100.753 94.4523 99.0794 94.4523 98.9184C97.5364 98.3718 100.396 94.6971 101.601 88.7288C101.601 90.1782 102.773 72.2245 102.773 75.5039C102.773 75.2892 102.773 75.1769 102.753 74.7572C102.768 74.6743 102.773 74.5035 102.773 74.1423C108.097 72.161 114.304 79.7544 114.304 82.0334C118.428 87.3527 131.418 105.14 131.418 102.271C133.199 107.629 133.487 131.869 133.487 131.908C136.259 130.453 137.211 124.49 137.318 127.257C137.221 122.665 136.445 99.5626 136.445 100.363C136.445 99.8554 119.321 79.5787 119.321 80.2619C119.321 81.8919 111.049 69.9845 111.049 70.6287C104.51 66.9735 100.425 65.8267 98.8492 65.7975C97.5364 61.3322 95.7064 62.44 95.4185 61.542C95.4185 58.004 128.471 58.5262 128.471 60.0439C128.471 59.3704 131.721 60.0683 132.014 57.3062C132.014 56.9792 94.2229 55.481 94.2229 55.1345V50.6254C94.2229 50.4058 118.13 43.0466 119.609 45.9942C119.609 41.8413 127.28 41.8022 130.247 36.6001C130.247 38.1227 141.164 20.857 141.164 23.7655C141.164 18.905 142.057 21.2328 140.871 17.7191ZM87.8838 41.2849C87.8838 38.7327 89.6064 36.6391 89.6064 35.1556C89.6064 33.023 89.0355 32.6765 87.5764 33.2621C87.5764 36.9271 86.3027 39.8063 85.9416 41.0653C86.3515 41.0653 87.8838 40.8652 87.8838 41.2849ZM71.6188 101.69C71.5651 102.012 71.5358 102.466 71.5358 103.101C71.5797 101.837 71.5944 102.081 71.6188 101.69ZM63.2252 75.4112C63.1666 74.8109 63.1324 74.4303 63.1324 74.3912C63.1324 75.6454 63.2154 75.4941 63.2252 75.4112ZM137.318 127.257C137.328 127.442 137.333 127.677 137.333 127.95C137.333 127.828 137.328 127.579 137.318 127.257ZM71.6285 99.9676C71.6383 99.9774 71.6578 99.9871 71.6676 99.992V99.9822C71.6578 99.9774 71.6285 99.9676 71.6285 99.9676Z" fill="white"/>
<path d="M162.677 162.677H3.32032V3.3185H162.677V162.677ZM0.00195312 166H166V9.15527e-05H0.00195312V166Z" fill="black"/>
<path d="M166 166H0.00195312V139.438H166V166Z" fill="black"/>
<path d="M61.2355 161.302V143.407H70.6588V147.096H65.4225V150.337H69.6096V154.172H65.4225V161.302H61.2355Z" fill="white"/>
<path d="M72.2916 161.302V143.407H81.3635V147.096H76.4787V150.136H80.5193V153.972H76.4787V157.461H81.6124V161.302H72.2916Z" fill="white"/>
<path d="M86.7873 155.57H88.8808L87.8365 148.216H87.7828L86.7873 155.57ZM93.4387 161.304H89.4518L89.1053 159.059H86.5628L86.2114 161.304H82.2245L85.3135 143.404H90.3497L93.4387 161.304Z" fill="white"/>
<path d="M98.4393 150.934H99.186C100.333 150.934 100.733 150.236 100.733 148.791C100.733 147.347 100.333 146.649 99.186 146.649H98.4393V150.934ZM94.4036 161.304V143.404H99.5861C103.178 143.404 104.725 144.6 104.725 148.44C104.725 151.305 103.524 152.178 102.724 152.456V152.505C104.222 152.778 104.671 155.321 104.671 157.566C104.671 159.357 104.871 160.606 105.218 161.304H101.128C100.782 159.83 100.635 158.859 100.635 157.59C100.635 154.569 100.386 154.023 99.0396 154.023H98.4393V161.304H94.4036Z" fill="white"/>
<path d="M159.358 16.1926H157.816V8.67246H157.767L155.122 16.1926H153.868L151.35 8.67246H151.306V16.1926H149.759V6.64236H152.214L154.591 13.7428H154.639L156.957 6.64236H159.358V16.1926ZM148.661 6.64236V7.87701H146.031V16.1926H144.489V7.87701H141.864V6.64236H148.661Z" fill="white"/>
</g>
</g>
<defs>
<clipPath id="clip0_14_197">
<rect width="166" height="166" fill="white"/>
</clipPath>
</defs>
</svg>
